# xmcd
#
# Track frame offsets: 
#        150
#        13910
#        26500
#        38650
#        58225
#        74455
#        92487
#        107957
#        125242
#        145090
#        162262
#        175870
#        199160
#
# Disc length: 2824 seconds
#
# Revision: 3
# Processed by: cddbd v1.5.2PL0 Copyright (c) Steve Scherf et al.
# Submitted via: ExactAudioCopy v0.99pb5
#
DISCID=ba0b060d
DTITLE=Laura Nyro - Eli And The Thirteenth Confession
DYEAR=1967
DGENRE=Folk
TTITLE0=Luckie
TTITLE1=Lu
TTITLE2=Sweet Blindness
TTITLE3=Poverty Train
TTITLE4=Lonely Women
TTITLE5=Eli's Comin
TTITLE6=Timer
TTITLE7=Stoned Soul Picnic
TTITLE8=Emmie
TTITLE9=Woman's Blues
TTITLE10=Once It Was Alright Now (Farmer Joe)
TTITLE11=December's Boudoir
TTITLE12=The Confession
EXTD=YEAR: 1967 ID3G: 80
EXTT0=
EXTT1=
EXTT2=
EXTT3=
EXTT4=
EXTT5=
EXTT6=
EXTT7=
EXTT8=
EXTT9=
EXTT10=
EXTT11=
EXTT12=
PLAYORDER=
